<?xml version="1.0" standalone="no"?>
<!DOCTYPE svg PUBLIC "-//W3C//DTD SVG 20010904//EN"
 "http://www.w3.org/TR/2001/REC-SVG-20010904/DTD/svg10.dtd">
<svg version="1.0" xmlns="http://www.w3.org/2000/svg"
 width="501.000000pt" height="501.000000pt" viewBox="0 0 501.000000 501.000000"
 preserveAspectRatio="xMidYMid meet">
<metadata>
Created by potrace 1.14, written by Peter Selinger 2001-2017
</metadata>
<g transform="translate(0.000000,501.000000) scale(0.100000,-0.100000)"
fill="#000000" stroke="none">
<path d="M2379 4539 c-30 -16 -71 -37 -91 -47 -21 -9 -38 -20 -38 -24 0 -5 -4
-8 -9 -8 -6 0 -37 -16 -70 -35 -33 -20 -64 -35 -67 -35 -4 1 -10 -2 -13 -8 -3
-5 -37 -26 -76 -47 -38 -21 -77 -44 -85 -51 -8 -7 -22 -14 -30 -16 -8 -2 -17
-6 -20 -9 -3 -3 -34 -22 -70 -43 -36 -20 -83 -48 -105 -61 -22 -14 -51 -30
-65 -37 -14 -7 -27 -16 -30 -19 -5 -7 -43 -29 -138 -80 -28 -16 -70 -40 -93
-54 -22 -15 -56 -35 -75 -46 -19 -10 -51 -29 -71 -40 -21 -12 -55 -31 -76 -41
-20 -11 -40 -24 -43 -29 -3 -5 -10 -7 -15 -4 -5 4 -9 1 -9 -4 0 -6 -7 -11 -15
-11 -8 0 -15 -4 -15 -10 0 -5 -3 -9 -7 -8 -11 3 -122 -58 -153 -84 l-25 -20
-2 -721 c-1 -397 -4 -729 -6 -739 -3 -10 -2 -18 1 -18 4 0 6 -91 4 -201 -3
-196 -3 -202 19 -225 12 -13 26 -21 30 -18 5 3 9 1 9 -5 0 -5 9 -12 19 -16 11
-3 35 -17 54 -30 20 -13 68 -41 109 -62 40 -21 76 -42 79 -46 3 -5 10 -9 15
-9 5 -1 18 -6 29 -13 93 -56 179 -105 186 -105 5 0 9 -3 9 -7 0 -5 10 -13 23
-19 12 -6 42 -22 67 -34 45 -23 93 -54 118 -78 8 -7 17 -10 22 -7 4 2 19 -6
33 -19 14 -13 28 -22 30 -20 2 2 19 -6 38 -18 69 -46 108 -63 120 -51 17 17
18 403 1 434 -7 13 -34 36 -58 51 -25 16 -42 23 -39 17 4 -6 -2 -5 -14 3 -12
7 -21 16 -21 21 0 4 -4 5 -10 2 -5 -3 -10 -3 -10 2 0 4 -26 21 -58 38 -31 16
-59 32 -62 35 -3 3 -26 16 -52 29 -26 13 -56 32 -67 43 -11 10 -24 19 -28 19
-18 3 -79 35 -93 49 -3 3 -26 16 -52 29 -27 13 -48 28 -48 33 0 5 -4 6 -10 3
-5 -3 -10 -1 -10 4 0 6 -6 11 -13 11 -14 0 -45 29 -46 43 -1 4 -2 8 -2 10 -1
1 -3 124 -5 274 -1 150 -5 277 -9 283 -3 5 -3 10 2 10 10 0 9 212 -1 228 -4 7
-4 12 1 12 4 0 7 111 7 248 -1 136 1 253 4 260 2 7 30 26 61 43 31 16 71 38
89 49 17 11 32 17 32 15 0 -3 9 4 20 15 12 12 25 18 30 15 6 -4 10 -1 10 4 0
6 18 18 40 27 22 9 40 20 40 25 0 5 4 9 9 9 7 0 183 98 251 140 8 5 45 27 82
48 37 22 64 43 60 47 -4 3 -2 5 3 4 15 -4 55 11 55 21 0 8 41 25 49 21 2 -2 7
3 12 10 4 7 15 14 25 15 9 2 21 9 25 16 5 7 9 10 9 6 0 -4 8 -1 18 7 9 8 21
15 26 14 5 0 12 3 15 9 3 5 37 26 74 48 38 21 81 47 95 56 15 9 34 17 43 17 9
1 22 7 28 15 24 29 110 1 112 -37 6 -93 2 -257 -5 -257 -5 0 -4 -6 1 -12 11
-15 11 -148 0 -165 -4 -6 -4 -14 1 -17 10 -6 9 -127 -1 -143 -4 -7 -4 -14 0
-16 10 -7 10 -278 0 -294 -5 -7 -5 -13 0 -13 10 0 10 -291 0 -307 -5 -7 -4
-13 0 -13 11 0 10 -130 0 -147 -5 -7 -4 -13 0 -13 11 0 10 -141 0 -157 -4 -6
-4 -14 0 -16 10 -6 9 -219 -1 -235 -4 -7 -4 -12 1 -12 10 0 9 -451 -1 -468 -4
-7 -4 -12 1 -12 4 0 8 -53 8 -117 -1 -189 1 -192 80 -143 22 14 43 24 48 22 4
-1 7 2 7 8 0 5 7 10 15 10 7 0 19 8 24 18 6 9 11 14 11 9 0 -4 18 4 39 17 21
14 42 22 45 19 3 -4 6 -1 6 5 0 7 6 12 13 12 8 0 14 6 15 13 0 6 3 42 5 80 2
37 6 69 8 71 2 2 2 68 -1 146 -3 78 -3 143 0 145 3 2 3 33 0 70 -3 37 -2 69 2
71 4 3 4 15 0 27 -9 25 -8 59 2 75 3 6 2 13 -2 16 -8 5 -9 29 -2 61 1 6 2 12
1 15 -5 16 -2 500 3 509 4 5 2 13 -4 16 -8 5 -8 11 -1 19 6 7 8 16 4 19 -3 4
-1 7 5 7 7 0 13 -4 13 -10 2 -15 4 -22 17 -53 7 -16 12 -35 12 -43 0 -8 5 -14
10 -14 6 0 9 -3 8 -7 -1 -5 4 -21 11 -38 8 -16 17 -39 21 -50 4 -11 21 -54 39
-95 17 -41 31 -82 31 -91 0 -9 7 -22 15 -29 8 -6 14 -15 13 -18 -1 -4 6 -24
15 -46 9 -21 17 -43 17 -48 0 -5 11 -31 25 -58 14 -28 23 -50 20 -50 -3 0 0
-10 7 -22 7 -13 13 -25 13 -28 3 -10 27 -66 41 -94 8 -16 14 -35 14 -42 0 -7
9 -29 20 -49 11 -19 18 -35 15 -35 -2 0 2 -12 10 -26 8 -15 12 -49 10 -85 -2
-46 0 -62 12 -66 8 -3 18 -2 22 3 3 5 25 18 48 29 24 11 43 23 43 26 0 3 16
11 35 19 19 8 35 17 35 20 0 4 20 17 45 29 45 22 57 34 63 61 1 8 3 311 4 673
0 443 -3 661 -10 670 -6 6 -28 21 -49 32 -21 11 -40 22 -43 26 -3 3 -33 21
-67 39 -35 18 -63 36 -63 40 0 7 -21 16 -57 25 -14 4 -20 -33 -19 -129 1 -42
-2 -76 -6 -76 -4 0 -4 -11 1 -23 5 -13 6 -30 1 -37 -5 -7 -4 -24 1 -37 6 -16
5 -32 -2 -45 -6 -11 -7 -18 -2 -15 10 6 10 -84 -1 -101 -4 -7 -4 -12 1 -12 11
0 10 -271 -1 -289 -6 -9 -5 -12 2 -7 10 6 11 -18 0 -29 -8 -8 -50 84 -43 95 3
5 1 11 -5 15 -6 4 -8 11 -5 16 4 5 1 9 -4 9 -6 0 -11 8 -11 18 0 10 -4 22 -8
27 -5 6 -19 44 -32 85 -13 41 -28 81 -33 88 -5 7 -11 20 -12 30 -1 9 -5 26 -9
37 -4 11 -12 34 -18 50 -5 17 -14 39 -18 50 -4 11 -18 47 -30 80 -12 33 -26
69 -30 80 -31 75 -75 207 -72 218 1 4 -2 7 -6 7 -5 0 -14 19 -21 43 -7 23 -19
58 -28 77 -14 29 -16 73 -15 265 2 252 -6 310 -42 319 -12 3 -39 17 -59 30
-20 14 -37 23 -37 20 0 -3 -7 2 -16 10 -8 9 -21 16 -28 16 -7 0 -22 9 -34 20
-12 12 -22 17 -22 13 0 -4 -4 -3 -8 3 -7 10 -79 49 -118 64 -16 6 -36 1 -75
-21z"/>
<path d="M2989 4248 c-6 -22 -9 -61 -9 -148 0 -255 8 -325 35 -308 2 2 12 -7
20 -20 9 -12 20 -20 25 -17 4 2 18 -3 31 -14 13 -10 49 -31 79 -48 148 -82
296 -168 301 -176 3 -5 9 -7 12 -5 4 1 14 -4 24 -12 10 -9 23 -17 28 -19 32
-11 55 -25 55 -33 0 -4 8 -8 18 -8 21 0 56 -28 70 -55 7 -13 10 -244 10 -668
0 -629 -1 -649 -19 -666 -11 -10 -37 -27 -57 -37 -20 -11 -42 -24 -48 -30 -7
-6 -26 -17 -43 -24 -17 -7 -31 -17 -31 -23 0 -6 -3 -7 -7 -4 -3 4 -13 1 -22
-6 -25 -21 -158 -97 -170 -97 -6 0 -11 -4 -11 -9 0 -5 -13 -14 -30 -20 -16 -5
-30 -14 -30 -18 0 -5 -10 -10 -22 -10 -13 -1 -24 -7 -26 -13 -2 -5 -10 -10
-17 -10 -7 0 -15 -4 -17 -9 -1 -5 -10 -11 -18 -13 -8 -2 -21 -9 -28 -16 -8 -7
-18 -10 -23 -7 -5 4 -9 1 -9 -5 0 -6 -12 -16 -27 -23 -16 -6 -34 -17 -41 -24
-7 -7 -20 -13 -28 -13 -8 0 -14 -5 -14 -12 0 -6 -3 -8 -6 -5 -4 4 -15 -3 -25
-15 -11 -11 -19 -18 -19 -14 0 4 -13 -2 -29 -13 -16 -12 -32 -21 -36 -21 -4 0
-19 -9 -35 -20 -15 -11 -29 -17 -32 -15 -2 2 -17 -7 -32 -20 -16 -14 -35 -25
-41 -25 -7 0 -18 -7 -25 -15 -7 -8 -16 -13 -20 -10 -4 3 -19 -6 -33 -19 -14
-13 -28 -21 -31 -18 -3 3 -6 0 -6 -6 0 -7 -3 -11 -7 -11 -12 2 -93 -33 -93
-40 0 -4 -8 -7 -18 -8 -9 -1 -22 -3 -27 -4 -21 -5 -65 25 -66 45 -1 12 -3 584
-4 1271 -2 688 -4 1250 -5 1250 -1 0 -3 12 -4 28 -4 37 -8 40 -42 26 -16 -7
-32 -12 -36 -11 -5 1 -8 -2 -8 -8 0 -5 -7 -10 -15 -10 -9 0 -26 -9 -38 -20
-12 -12 -32 -23 -44 -26 -13 -4 -23 -10 -23 -16 0 -5 -3 -7 -8 -4 -4 2 -25 -9
-46 -25 -22 -16 -36 -29 -32 -29 5 0 3 -7 -4 -14 -9 -11 -12 -124 -11 -440 0
-390 -2 -427 -17 -434 -14 -6 -94 -7 -287 -2 -5 0 -21 -1 -35 -3 -14 -2 -32 0
-41 5 -20 9 -32 48 -16 48 8 0 8 3 2 8 -12 8 -14 222 -2 222 5 0 5 5 1 12 -4
6 -8 81 -8 167 -1 86 -5 162 -9 169 -8 12 -36 13 -47 2 -10 -11 -55 -38 -167
-101 -21 -12 -44 -26 -50 -31 -7 -6 -13 -7 -13 -2 -1 5 -6 -1 -13 -13 -9 -17
-12 -176 -10 -680 2 -362 3 -666 3 -676 1 -10 12 -23 26 -29 13 -6 24 -15 24
-20 0 -4 9 -8 20 -8 11 0 20 -4 20 -9 0 -5 16 -15 35 -22 19 -7 35 -17 35 -21
0 -4 6 -8 14 -8 8 0 16 -3 18 -7 2 -5 26 -20 54 -35 51 -27 52 -28 57 -7 3 11
4 36 2 55 -2 21 1 34 8 34 8 0 7 3 -1 9 -17 11 -17 21 0 32 7 5 9 9 3 9 -6 0
-10 84 -10 233 0 186 3 235 14 247 12 12 47 15 180 15 91 1 176 -1 189 -3 l22
-4 -1 -657 c0 -361 3 -678 6 -706 7 -56 28 -95 51 -95 8 0 12 -5 9 -10 -4 -6
-3 -9 2 -8 14 4 53 -13 53 -23 0 -5 3 -8 8 -7 11 2 45 -14 60 -29 7 -7 20 -13
28 -13 9 0 12 -5 8 -12 -4 -6 -3 -8 3 -5 6 4 32 -8 59 -25 59 -38 111 -60 116
-50 6 14 130 72 140 66 6 -4 8 -2 5 3 -4 6 9 18 28 27 19 9 37 21 40 26 4 6
10 8 14 5 5 -2 18 4 30 14 12 11 46 31 76 46 30 14 55 31 55 36 0 6 4 8 9 5 5
-3 20 3 34 14 14 11 30 20 35 20 6 0 17 6 24 12 7 7 27 20 43 28 17 8 32 17
35 20 3 3 14 10 25 16 99 54 142 79 153 91 8 7 18 11 23 8 5 -4 9 -2 9 3 0 5
14 15 30 22 17 7 30 16 30 21 0 5 6 9 14 9 8 0 16 5 18 11 2 5 10 11 18 12 8
2 22 7 30 12 29 19 55 34 108 61 28 15 52 31 52 36 0 4 3 7 8 6 4 -1 27 11 52
27 25 16 71 41 103 57 31 15 57 33 57 40 0 6 3 8 7 5 6 -7 113 50 124 66 3 5
9 8 13 8 23 -2 100 52 89 63 -4 3 -1 6 6 6 7 0 11 6 8 14 -3 8 -3 17 1 20 9
10 9 139 -1 153 -4 6 -4 13 0 16 9 6 9 264 0 273 -3 3 -2 16 3 28 4 13 4 29
-1 39 -6 9 -6 17 -1 17 4 0 7 15 5 33 -7 67 -8 107 -3 107 3 0 5 11 5 25 0 14
-4 25 -8 25 -4 0 -3 9 3 20 7 13 7 20 1 20 -6 0 -8 7 -4 17 8 21 8 81 0 89 -3
3 -2 17 3 30 6 14 6 26 0 29 -6 3 -6 15 0 30 6 15 6 27 0 30 -6 3 -6 15 0 30
6 15 6 27 0 30 -7 4 -7 13 0 24 5 10 6 21 3 25 -10 9 -10 76 0 76 4 0 5 5 2
11 -9 13 -13 69 -6 69 8 0 4 87 -4 99 -3 5 -1 12 5 16 7 4 7 12 0 25 -6 10 -7
21 -2 24 8 5 7 80 -2 102 -3 7 -1 16 4 19 5 3 6 15 1 28 -5 12 -9 24 -11 27
-1 3 3 16 8 30 5 14 6 36 2 50 -4 14 -3 33 2 43 5 9 5 17 1 17 -4 0 -8 27 -8
61 0 33 -3 66 -7 72 -4 7 -8 8 -8 4 0 -4 -10 2 -22 15 -13 13 -48 36 -78 51
-30 16 -82 44 -115 63 -33 19 -72 40 -87 47 -16 6 -28 15 -28 19 0 4 -4 8 -10
8 -5 0 -38 18 -72 40 -35 22 -68 40 -74 40 -6 0 -19 9 -29 20 -10 11 -24 20
-32 20 -7 0 -13 5 -13 11 0 5 -4 8 -9 4 -5 -3 -12 -1 -16 4 -3 5 -18 16 -33
24 -47 24 -107 59 -112 66 -3 3 -18 13 -35 21 -16 8 -32 17 -35 20 -3 3 -16
11 -29 18 -13 8 -40 23 -60 34 -20 11 -45 27 -56 34 -17 12 -44 19 -46 12z"/>
<path d="M4386 2361 c-19 -21 -38 -91 -25 -91 6 0 7 -4 4 -10 -6 -9 23 -69 35
-71 46 -10 60 -5 111 41 53 48 96 63 124 42 22 -15 16 -68 -10 -92 -14 -13
-28 -20 -32 -17 -3 4 -12 2 -20 -4 -10 -9 -13 -8 -13 2 0 11 -2 11 -10 -1 -19
-30 66 -54 90 -25 7 8 9 15 4 15 -5 0 -3 4 4 8 19 13 26 91 10 122 -7 14 -24
35 -37 47 -20 18 -28 20 -40 10 -8 -7 -17 -11 -20 -9 -5 2 -59 -40 -97 -76
-36 -34 -77 -19 -77 27 0 43 14 54 76 60 17 2 5 21 -13 21 -11 0 -20 4 -20 8
0 14 -29 10 -44 -7z"/>
<path d="M483 2328 c10 -29 -31 -56 -75 -49 -5 0 -8 -3 -8 -7 0 -5 -6 -9 -12
-10 -43 -5 -71 -12 -99 -26 -26 -13 -34 -14 -41 -4 -6 10 -8 10 -8 -1 0 -8 -8
-4 -20 10 -10 13 -19 21 -20 16 -1 -20 34 -127 42 -127 7 0 12 15 9 33 -1 7 5
9 32 11 6 1 14 4 17 7 8 8 152 47 180 47 13 1 28 -4 32 -11 14 -23 20 2 8 38
-7 20 -13 43 -14 51 -1 8 -8 20 -16 27 -10 10 -12 9 -7 -5z"/>
<path d="M607 1920 c4 -14 -2 -23 -21 -31 -28 -13 -30 -35 -3 -33 16 2 16 -6
-2 -51 -7 -16 -21 -52 -31 -80 -10 -27 -30 -80 -44 -117 -30 -80 -23 -85 51
-38 26 17 52 30 59 30 6 0 15 7 18 16 3 8 10 13 15 10 5 -4 15 -1 23 6 7 7 19
14 26 16 42 8 58 8 69 0 26 -21 22 14 -6 56 -17 24 -27 46 -24 50 4 3 4 6 1 6
-4 0 -16 -20 -28 -45 -12 -25 -25 -43 -30 -40 -4 3 -11 -2 -14 -11 -3 -8 -10
-12 -16 -9 -5 3 -10 1 -10 -4 0 -6 -7 -11 -15 -11 -8 0 -15 -4 -15 -9 0 -5 -9
-11 -19 -14 -23 -6 -22 8 4 69 9 21 18 48 21 59 2 11 8 21 14 23 6 2 8 8 5 13
-3 4 4 27 16 50 11 23 17 44 12 48 -4 3 -14 18 -22 34 -17 31 -42 37 -34 7z"/>
<path d="M4234 1922 c-7 -4 -22 -31 -34 -59 -14 -33 -27 -50 -34 -46 -6 3 -8
3 -4 -1 4 -5 -2 -23 -12 -41 -19 -34 -16 -53 5 -35 9 7 30 1 71 -20 129 -66
159 -87 165 -116 l6 -29 14 30 c7 17 18 33 24 37 5 4 6 8 1 8 -6 0 -2 6 9 13
13 10 15 16 6 21 -6 4 -18 2 -26 -4 -8 -7 -15 -8 -15 -3 0 5 -20 19 -45 31
-44 21 -44 22 -33 54 6 18 16 36 21 39 5 4 6 12 2 19 -5 8 -13 4 -24 -14 -10
-14 -21 -23 -24 -19 -4 3 -7 0 -7 -7 0 -7 -3 -10 -7 -7 -3 4 -12 2 -20 -4 -9
-8 -13 -8 -13 -1 0 6 -6 9 -14 6 -15 -6 -46 21 -46 39 1 23 39 59 62 57 13 -1
28 -2 35 -1 15 1 5 31 -10 31 -6 0 -18 7 -26 14 -9 8 -21 12 -27 8z"/>
<path d="M495 1838 c-22 -11 -47 -24 -56 -28 -8 -4 -32 -7 -52 -6 -20 2 -37 1
-37 -2 0 -12 52 -92 60 -92 4 0 11 13 15 30 3 16 14 32 24 35 10 3 28 15 40
26 12 12 28 22 34 23 27 6 47 19 41 27 -8 13 -24 10 -69 -13z"/>
<path d="M4432 1805 c6 -14 14 -25 18 -25 11 0 10 -59 -1 -66 -11 -6 -2 -24
12 -24 5 0 9 5 9 11 0 6 9 22 20 37 l21 25 -33 33 c-41 41 -63 45 -46 9z"/>
<path d="M3941 1479 c-22 -23 -38 -46 -35 -51 3 -4 10 -6 15 -3 15 10 82 -27
122 -68 20 -21 37 -40 37 -42 0 -2 -19 -1 -42 2 -24 3 -71 6 -105 7 -35 0 -63
3 -63 6 0 15 -71 -1 -94 -21 -32 -28 -34 -48 -3 -42 16 3 36 -9 77 -50 82 -81
100 -105 100 -132 0 -16 6 -25 15 -25 8 0 15 7 15 16 0 8 4 12 10 9 5 -3 15 5
21 19 7 14 16 23 22 19 6 -3 7 -1 3 5 -4 7 -16 12 -27 12 -26 0 -57 18 -96 56
-17 18 -33 31 -35 29 -2 -1 -13 8 -26 21 l-23 24 23 2 c13 0 30 1 38 0 78 -6
202 -13 230 -14 65 0 67 1 43 21 -13 11 -23 24 -23 30 0 6 -7 11 -15 11 -8 0
-22 11 -31 25 -9 14 -20 22 -25 19 -5 -3 -8 0 -7 8 2 7 -2 12 -9 11 -6 -2 -15
6 -18 17 -4 11 -11 20 -16 20 -5 0 -9 6 -9 14 0 8 -6 16 -12 18 -7 3 -11 18
-10 36 1 18 0 32 -2 32 -2 0 -23 -19 -45 -41z"/>
<path d="M938 1455 c-3 -6 -5 -22 -3 -37 2 -16 -1 -30 -6 -34 -5 -3 -7 -10 -4
-15 4 -5 1 -9 -6 -9 -7 0 -10 -3 -6 -6 3 -3 -5 -25 -18 -49 -13 -23 -21 -45
-18 -49 4 -3 2 -6 -3 -6 -5 0 -10 -10 -11 -22 -1 -11 -6 -24 -10 -27 -4 -3
-13 -21 -20 -38 -12 -34 -3 -50 20 -36 6 4 18 8 25 9 8 2 29 10 48 18 19 9 49
22 67 30 17 7 46 19 62 26 17 7 35 15 40 16 41 11 55 12 55 1 0 -8 4 -7 9 2 7
10 -2 25 -29 53 -22 21 -42 38 -45 38 -3 0 -3 -14 0 -32 4 -18 3 -29 -1 -26
-8 8 -34 -14 -27 -24 2 -5 -5 -8 -16 -8 -12 0 -21 -4 -21 -10 0 -5 -7 -7 -15
-4 -8 4 -15 2 -15 -4 0 -5 -10 -12 -22 -15 -13 -2 -32 -8 -42 -12 -17 -7 -18
-5 -12 16 4 13 8 31 9 39 1 8 8 21 14 28 7 7 16 25 19 40 4 15 13 35 21 44 8
9 12 21 9 27 -3 5 0 12 6 15 10 3 8 9 -4 19 -10 8 -18 20 -18 26 0 7 -4 10 -9
7 -5 -4 -11 -1 -13 6 -3 7 -7 8 -10 3z"/>
<path d="M1393 1063 c4 -19 -2 -41 -19 -68 -13 -22 -29 -51 -36 -65 -7 -14
-15 -27 -18 -30 -3 -3 -13 -18 -22 -35 -13 -23 -24 -30 -45 -28 l-28 2 28 -24
c15 -14 35 -25 43 -25 8 0 14 -4 14 -10 0 -5 17 -17 38 -27 20 -9 43 -23 50
-30 18 -17 17 -18 51 19 16 18 27 38 23 46 -4 13 -7 12 -18 -2 -16 -23 -61
-30 -96 -15 -33 13 -36 37 -8 69 11 13 20 29 20 35 0 16 33 30 38 16 2 -6 12
-11 22 -11 10 0 22 -5 25 -10 4 -6 11 -8 16 -4 6 3 -4 19 -21 35 -32 31 -35
54 -12 97 16 27 32 28 60 2 16 -16 21 -29 17 -50 -6 -35 7 -46 29 -24 39 39
39 69 1 76 -11 1 -29 11 -39 21 -11 9 -26 17 -33 17 -7 0 -13 4 -13 8 0 5 -16
16 -36 26 l-37 17 6 -28z"/>
<path d="M3450 1068 c-56 -23 -75 -34 -104 -62 -46 -45 -58 -97 -44 -193 1 -7
6 -13 11 -13 6 0 7 -3 4 -7 -9 -9 53 -53 75 -53 10 0 18 -4 18 -9 0 -12 68 -2
110 17 35 15 90 71 94 94 1 7 5 19 9 25 11 17 4 113 -7 113 -5 0 -7 3 -3 6 5
5 -52 68 -63 69 -3 0 -15 6 -27 13 -17 9 -23 10 -23 1 0 -8 -4 -8 -12 -1 -9 6
-21 6 -38 0z m78 -73 c17 -11 32 -23 32 -26 0 -4 7 -14 15 -22 8 -9 16 -35 18
-58 3 -37 -1 -48 -26 -76 -16 -18 -33 -30 -38 -28 -4 3 -10 1 -13 -4 -7 -11
-71 -9 -82 2 -4 4 -13 7 -20 7 -19 0 -70 53 -79 81 -12 35 -13 79 -3 79 5 0 7
4 4 9 -6 8 33 39 64 52 29 12 95 3 128 -16z"/>
<path d="M1820 882 c0 -4 7 -15 15 -25 7 -11 12 -24 10 -30 -2 -7 -6 -28 -9
-47 -3 -19 -13 -62 -22 -95 -9 -33 -16 -66 -17 -72 0 -7 -8 -13 -18 -13 -10 0
-20 -4 -23 -9 -7 -11 18 -22 64 -28 19 -2 41 -6 48 -8 15 -5 16 7 2 21 -14 14
-21 54 -11 54 5 0 9 6 8 13 -2 66 15 61 44 -14 29 -74 61 -109 100 -109 16 0
29 2 29 4 0 1 -13 17 -30 34 -26 28 -33 43 -29 68 0 4 -5 10 -12 15 -7 4 -14
19 -16 34 -3 17 0 24 7 20 5 -3 10 -1 10 5 0 6 4 9 9 6 10 -7 61 38 62 56 1 7
3 23 4 35 2 21 -36 49 -62 44 -7 -1 -13 3 -13 9 0 6 -4 9 -9 5 -5 -3 -12 -1
-16 4 -3 6 -12 8 -20 4 -8 -3 -15 0 -15 7 0 6 -4 8 -10 5 -5 -3 -26 -2 -45 4
-19 5 -35 6 -35 3z m155 -75 c8 -8 8 -22 1 -48 -11 -41 -36 -55 -69 -38 -16 9
-18 17 -12 57 4 26 12 50 18 54 11 7 41 -5 62 -25z"/>
<path d="M2903 852 c-64 -21 -71 -28 -38 -36 14 -4 26 -13 26 -21 2 -17 3 -24
12 -45 6 -17 15 -58 22 -110 3 -19 8 -43 11 -52 3 -9 -3 -21 -13 -27 -15 -9
-16 -12 -3 -20 8 -5 19 -7 25 -3 5 3 15 7 20 8 82 15 87 19 52 35 -20 9 -27
22 -36 68 -5 31 -13 67 -16 81 -21 81 -22 102 -9 107 14 5 20 34 7 32 -5 -1
-31 -8 -60 -17z"/>
<path d="M2454 800 c-3 -3 -9 -5 -12 -5 -18 -1 -73 -41 -78 -57 -13 -41 15
-80 81 -113 50 -25 65 -39 65 -60 0 -10 5 -13 12 -9 7 4 2 -7 -11 -25 -20 -27
-28 -31 -62 -29 -25 1 -39 7 -39 16 0 7 -4 11 -9 7 -5 -3 -11 7 -13 22 -5 43
-33 37 -32 -7 3 -55 3 -57 17 -58 6 0 28 -3 47 -5 19 -2 40 -2 45 2 6 3 15 6
22 7 37 6 94 80 75 99 -4 4 -7 10 -7 15 0 12 -44 49 -80 67 -41 21 -75 60 -69
77 3 8 18 19 34 25 24 8 33 6 55 -15 14 -13 23 -29 20 -34 -3 -6 0 -10 8 -10
8 0 17 7 21 15 3 8 1 15 -4 15 -6 0 -6 9 0 24 8 21 6 26 -13 32 -28 9 -66 11
-73 4z"/>
</g>
</svg>
